<svg xmlns="http://www.w3.org/2000/svg" viewBox="0 0 1000 260" role="img" aria-labelledby="title desc">
  <title id="title">DeskTank battlefield assets</title>
  <desc id="desc">A preview strip showing the player tank, enemy tank, castle obstacle, wall obstacle, and base.</desc>
  <rect width="1000" height="260" rx="28" fill="#071016"/>
  <g opacity="0.14" stroke="#7ae7ff" stroke-width="2">
    <path d="M0 52h1000M0 104h1000M0 156h1000M0 208h1000"/>
    <path d="M80 0v260M160 0v260M240 0v260M320 0v260M400 0v260M480 0v260M560 0v260M640 0v260M720 0v260M800 0v260M880 0v260M960 0v260"/>
  </g>
  <g transform="translate(105 50)">
    <ellipse cx="70" cy="140" rx="72" ry="18" fill="#000" opacity="0.35"/>
    <rect x="16" y="42" width="24" height="108" rx="10" fill="#06101d"/>
    <rect x="100" y="42" width="24" height="108" rx="10" fill="#06101d"/>
    <path d="M42 132h56l10-74-24-28H56L32 58z" fill="#1167e8" stroke="#bdecff" stroke-width="5"/>
    <circle cx="70" cy="82" r="26" fill="#25a9ff" stroke="#bdecff" stroke-width="4"/>
    <rect x="63" y="14" width="14" height="62" rx="5" fill="#0b4aa8"/>
    <rect x="51" y="10" width="38" height="16" rx="6" fill="#06101d"/>
    <text x="70" y="178" text-anchor="middle" fill="#bdecff" font-family="Avenir Next, sans-serif" font-size="18" font-weight="700">PLAYER</text>
  </g>
  <g transform="translate(285 50)">
    <ellipse cx="70" cy="140" rx="72" ry="18" fill="#000" opacity="0.35"/>
    <rect x="16" y="42" width="24" height="108" rx="10" fill="#1b0505"/>
    <rect x="100" y="42" width="24" height="108" rx="10" fill="#1b0505"/>
    <path d="M42 132h56l10-74-24-28H56L32 58z" fill="#dc1723" stroke="#ffc0ba" stroke-width="5"/>
    <circle cx="70" cy="82" r="26" fill="#ff454d" stroke="#ffc0ba" stroke-width="4"/>
    <rect x="63" y="14" width="14" height="62" rx="5" fill="#a40812"/>
    <rect x="51" y="10" width="38" height="16" rx="6" fill="#250507"/>
    <text x="70" y="178" text-anchor="middle" fill="#ffc0ba" font-family="Avenir Next, sans-serif" font-size="18" font-weight="700">ENEMY</text>
  </g>
  <g transform="translate(475 36)">
    <ellipse cx="70" cy="154" rx="76" ry="18" fill="#000" opacity="0.28"/>
    <rect x="5" y="55" width="34" height="92" rx="7" fill="#83796a" stroke="#38332d" stroke-width="4"/>
    <rect x="101" y="55" width="34" height="92" rx="7" fill="#83796a" stroke="#38332d" stroke-width="4"/>
    <rect x="35" y="73" width="70" height="74" rx="8" fill="#9e9280" stroke="#38332d" stroke-width="4"/>
    <rect x="0" y="45" width="44" height="18" rx="3" fill="#951f1a"/>
    <rect x="96" y="45" width="44" height="18" rx="3" fill="#951f1a"/>
    <rect x="58" y="120" width="24" height="34" rx="5" fill="#271a12"/>
    <text x="70" y="192" text-anchor="middle" fill="#e6dccb" font-family="Avenir Next, sans-serif" font-size="18" font-weight="700">CASTLE</text>
  </g>
  <g transform="translate(660 52)">
    <ellipse cx="70" cy="138" rx="76" ry="18" fill="#000" opacity="0.26"/>
    <rect x="10" y="58" width="120" height="78" rx="8" fill="#8b7359" stroke="#423d36" stroke-width="4"/>
    <g fill="#ae8965" stroke="#423d36" stroke-width="2">
      <rect x="24" y="72" width="32" height="16" rx="3"/>
      <rect x="64" y="72" width="32" height="16" rx="3"/>
      <rect x="44" y="96" width="32" height="16" rx="3"/>
      <rect x="84" y="96" width="32" height="16" rx="3"/>
      <rect x="24" y="120" width="32" height="16" rx="3"/>
      <rect x="64" y="120" width="32" height="16" rx="3"/>
    </g>
    <rect x="18" y="38" width="24" height="26" rx="3" fill="#9e8061" stroke="#423d36" stroke-width="3"/>
    <rect x="58" y="38" width="24" height="26" rx="3" fill="#9e8061" stroke="#423d36" stroke-width="3"/>
    <rect x="98" y="38" width="24" height="26" rx="3" fill="#9e8061" stroke="#423d36" stroke-width="3"/>
    <text x="70" y="178" text-anchor="middle" fill="#e8d4bd" font-family="Avenir Next, sans-serif" font-size="18" font-weight="700">WALL</text>
  </g>
  <g transform="translate(840 42)">
    <ellipse cx="70" cy="148" rx="68" ry="18" fill="#000" opacity="0.34"/>
    <rect x="18" y="68" width="104" height="86" rx="12" fill="#2a2d31" stroke="#ffd23f" stroke-width="6"/>
    <path d="M20 78l50-54 50 54z" fill="#dc291d" stroke="#2a100a" stroke-width="4"/>
    <rect x="56" y="108" width="28" height="42" rx="5" fill="#fff08a" stroke="#3a2d0b" stroke-width="3"/>
    <text x="70" y="194" text-anchor="middle" fill="#ffe16a" font-family="Avenir Next, sans-serif" font-size="18" font-weight="700">BASE</text>
  </g>
</svg>
