<svg xmlns="http://www.w3.org/2000/svg" viewBox="0 0 1024 1024" role="img" aria-labelledby="title desc">
  <title id="title">DeskTank app logo</title>
  <desc id="desc">A cute blue toy tank with a tiny red flag on a dark tactical grid.</desc>
  <defs>
    <linearGradient id="bg" x1="0" y1="0" x2="0" y2="1">
      <stop offset="0%" stop-color="#082734"/>
      <stop offset="100%" stop-color="#020b12"/>
    </linearGradient>
    <linearGradient id="body" x1="0" y1="0" x2="1" y2="1">
      <stop offset="0%" stop-color="#22a8ff"/>
      <stop offset="100%" stop-color="#0b4fe8"/>
    </linearGradient>
    <filter id="shadow" x="-20%" y="-20%" width="140%" height="140%">
      <feDropShadow dx="0" dy="28" stdDeviation="22" flood-color="#000" flood-opacity="0.35"/>
    </filter>
  </defs>
  <rect x="64" y="64" width="896" height="896" rx="210" fill="url(#bg)"/>
  <g opacity="0.18" stroke="#14c8ff" stroke-width="4">
    <path d="M160 176h704M160 272h704M160 368h704M160 464h704M160 560h704M160 656h704M160 752h704M160 848h704"/>
    <path d="M176 160v704M272 160v704M368 160v704M464 160v704M560 160v704M656 160v704M752 160v704M848 160v704"/>
  </g>
  <ellipse cx="512" cy="270" rx="342" ry="66" fill="#000" opacity="0.32"/>
  <g filter="url(#shadow)">
    <rect x="218" y="302" width="142" height="350" rx="44" fill="#07101c"/>
    <rect x="664" y="302" width="142" height="350" rx="44" fill="#07101c"/>
    <g fill="#ffffff" opacity="0.20">
      <rect x="244" y="352" width="90" height="12" rx="6"/>
      <rect x="244" y="410" width="90" height="12" rx="6"/>
      <rect x="244" y="468" width="90" height="12" rx="6"/>
      <rect x="244" y="526" width="90" height="12" rx="6"/>
      <rect x="244" y="584" width="90" height="12" rx="6"/>
      <rect x="690" y="352" width="90" height="12" rx="6"/>
      <rect x="690" y="410" width="90" height="12" rx="6"/>
      <rect x="690" y="468" width="90" height="12" rx="6"/>
      <rect x="690" y="526" width="90" height="12" rx="6"/>
      <rect x="690" y="584" width="90" height="12" rx="6"/>
    </g>
    <rect x="305" y="318" width="414" height="318" rx="74" fill="url(#body)" stroke="#bdecff" stroke-width="20"/>
    <rect x="370" y="520" width="284" height="42" rx="20" fill="#fff" opacity="0.26"/>
    <circle cx="512" cy="562" r="138" fill="#051d42"/>
    <circle cx="512" cy="562" r="104" fill="#24a8ff" stroke="#bdecff" stroke-width="12"/>
    <rect x="474" y="620" width="76" height="250" rx="26" fill="#0f4ab1" stroke="#051a38" stroke-width="12"/>
    <rect x="438" y="836" width="148" height="54" rx="22" fill="#051a38"/>
    <circle cx="485" cy="557" r="37" fill="#051a38" opacity="0.9"/>
    <path d="M650 596v194" stroke="#bdecff" stroke-width="12" stroke-linecap="round"/>
    <path d="M650 790l144-54-144-54z" fill="#ff3d4c"/>
  </g>
  <rect x="64" y="64" width="896" height="896" rx="210" fill="none" stroke="#fff" stroke-opacity="0.14" stroke-width="18"/>
</svg>
